<svg xmlns="http://www.w3.org/2000/svg" viewBox="0 0 400 400">
  <!-- Hexagonal Border -->
  <polygon points="200,40 340,120 340,280 200,360 60,280 60,120" fill="#1a2b42" stroke="#00b8d4" stroke-width="3"/>
  
  <!-- Grid Background -->
  <g opacity="0.1">
    <line x1="60" y1="120" x2="340" y2="120" stroke="#ffffff" stroke-width="1"/>
    <line x1="60" y1="160" x2="340" y2="160" stroke="#ffffff" stroke-width="1"/>
    <line x1="60" y1="200" x2="340" y2="200" stroke="#ffffff" stroke-width="1"/>
    <line x1="60" y1="240" x2="340" y2="240" stroke="#ffffff" stroke-width="1"/>
    <line x1="60" y1="280" x2="340" y2="280" stroke="#ffffff" stroke-width="1"/>
    
    <line x1="100" y1="120" x2="100" y2="280" stroke="#ffffff" stroke-width="1"/>
    <line x1="140" y1="120" x2="140" y2="280" stroke="#ffffff" stroke-width="1"/>
    <line x1="180" y1="120" x2="180" y2="280" stroke="#ffffff" stroke-width="1"/>
    <line x1="220" y1="120" x2="220" y2="280" stroke="#ffffff" stroke-width="1"/>
    <line x1="260" y1="120" x2="260" y2="280" stroke="#ffffff" stroke-width="1"/>
    <line x1="300" y1="120" x2="300" y2="280" stroke="#ffffff" stroke-width="1"/>
  </g>
  
  <!-- Terminal Window -->
  <rect x="90" y="110" width="220" height="140" rx="8" ry="8" fill="#151f2e" stroke="#00b8d4" stroke-width="2"/>
  
  <!-- Terminal Title Bar -->
  <rect x="90" y="110" width="220" height="30" rx="8" ry="8" fill="#00b8d4" stroke="#00b8d4" stroke-width="0"/>
  <rect x="90" y="125" width="220" height="15" fill="#00b8d4" stroke="#00b8d4" stroke-width="0"/>
  
  <!-- Terminal Buttons -->
  <circle cx="110" cy="125" r="6" fill="#ffab00"/>
  <circle cx="130" cy="125" r="6" fill="#ff5252"/>
  <circle cx="150" cy="125" r="6" fill="#69f0ae"/>
  
  <!-- Terminal Content -->
  <text x="110" y="180" font-family="'Courier New', monospace" font-size="24" font-weight="bold" fill="#ffffff">alias</text>
  
  <!-- Cursor -->
  <rect x="180" y="165" width="12" height="24" fill="#00b8d4">
    <animate attributeName="opacity" values="1;0;1" dur="1.5s" repeatCount="indefinite"/>
  </rect>
  
  <!-- Shell Symbols -->
  <text x="230" y="160" font-family="'Courier New', monospace" font-size="22" font-weight="bold" fill="#ffab00">$</text>
  <text x="260" y="180" font-family="'Courier New', monospace" font-size="22" font-weight="bold" fill="#ffab00">></text>
  <text x="230" y="200" font-family="'Courier New', monospace" font-size="22" font-weight="bold" fill="#ffab00">%</text>
  <text x="260" y="220" font-family="'Courier New', monospace" font-size="22" font-weight="bold" fill="#ffab00">#</text>
  
  <!-- Connecting Arrows -->
  <line x1="190" y1="170" x2="220" y2="160" stroke="#00b8d4" stroke-width="2" marker-end="url(#arrowhead)"/>
  <line x1="190" y1="180" x2="250" y2="180" stroke="#00b8d4" stroke-width="2" marker-end="url(#arrowhead)"/>
  <line x1="190" y1="190" x2="220" y2="200" stroke="#00b8d4" stroke-width="2" marker-end="url(#arrowhead)"/>
  <line x1="190" y1="200" x2="250" y2="220" stroke="#00b8d4" stroke-width="2" marker-end="url(#arrowhead)"/>
  
  <!-- Arrow Definition -->
  <defs>
    <marker id="arrowhead" markerWidth="10" markerHeight="7" refX="9" refY="3.5" orient="auto">
      <polygon points="0 0, 10 3.5, 0 7" fill="#00b8d4"/>
    </marker>
  </defs>
  
  <!-- Logo Text -->
  <text x="135" y="295" font-family="'JetBrains Mono', 'Fira Code', monospace" font-size="30" font-weight="bold" fill="#ffffff">alias<tspan fill="#00b8d4">ctl</tspan></text>
  
  <!-- Small Shell Icons -->
  <g transform="translate(125, 320) scale(0.35)">
    <circle cx="0" cy="0" r="20" fill="#151f2e" stroke="#ffffff" stroke-width="2"/>
    <text x="-10" y="7" font-family="'Courier New', monospace" font-size="22" font-weight="bold" fill="#ffffff">$</text>
  </g>
  
  <g transform="translate(165, 320) scale(0.35)">
    <circle cx="0" cy="0" r="20" fill="#151f2e" stroke="#ffffff" stroke-width="2"/>
    <text x="-10" y="7" font-family="'Courier New', monospace" font-size="22" font-weight="bold" fill="#ffffff">></text>
  </g>
  
  <g transform="translate(205, 320) scale(0.35)">
    <circle cx="0" cy="0" r="20" fill="#151f2e" stroke="#ffffff" stroke-width="2"/>
    <text x="-10" y="7" font-family="'Courier New', monospace" font-size="22" font-weight="bold" fill="#ffffff">%</text>
  </g>
  
  <g transform="translate(245, 320) scale(0.35)">
    <circle cx="0" cy="0" r="20" fill="#151f2e" stroke="#ffffff" stroke-width="2"/>
    <text x="-10" y="7" font-family="'Courier New', monospace" font-size="22" font-weight="bold" fill="#ffffff">#</text>
  </g>
  
  <!-- Connecting Lines -->
  <line x1="135" y1="320" x2="155" y2="320" stroke="#00b8d4" stroke-width="1.5"/>
  <line x1="175" y1="320" x2="195" y2="320" stroke="#00b8d4" stroke-width="1.5"/>
  <line x1="215" y1="320" x2="235" y2="320" stroke="#00b8d4" stroke-width="1.5"/>
</svg>